<svg xmlns="http://www.w3.org/2000/svg" viewBox="0 0 512 512" role="img" aria-labelledby="title description">
  <title id="title">坤舆智枢图标</title>
  <desc id="description">以坤卦、地形层次和遥感轨迹构成的现代新中式标志</desc>

  <rect x="44" y="44" width="424" height="424" rx="132" fill="#102F3A"/>

  <path
    d="M111 354C89 265 124 166 204 117C267 79 346 84 401 137"
    fill="none"
    stroke="#42B8A6"
    stroke-width="14"
    stroke-linecap="round"
  />
  <circle cx="402" cy="138" r="17" fill="#D75A42"/>
  <circle cx="402" cy="138" r="7" fill="#F4E9D8"/>

  <g fill="none" stroke="#E4F1EC" stroke-width="32" stroke-linecap="round">
    <path d="M151 199C176 184 204 181 229 191"/>
    <path d="M283 191C311 181 340 185 364 201"/>

    <path d="M130 256C160 239 194 235 224 248"/>
    <path d="M288 248C320 235 354 240 382 257"/>

    <path d="M151 314C176 296 207 294 233 305"/>
    <path d="M279 305C307 293 337 298 361 315"/>
  </g>

  <path
    d="M120 365C188 424 307 430 391 365"
    fill="none"
    stroke="#42B8A6"
    stroke-width="10"
    stroke-linecap="round"
    opacity=".72"
  />
</svg>
